<svg xmlns="http://www.w3.org/2000/svg" width="24" height="24" viewBox="0 0 24 24"><g fill="none" fill-rule="evenodd"><path d="M24 0v24H0V0z"/><path fill="#FFF" fill-rule="nonzero" d="M20 14.5a.5.5 0 0 1-.5.5H8.468l3.091 2.272a.5.5 0 0 1 .113.69l-.574.82a.5.5 0 0 1-.697.123l-.007-.005-6.06-4.417a.82.82 0 0 1 .372-1.475l.111-.007h.292A.5.5 0 0 1 5.117 13H19.5a.5.5 0 0 1 .5.5v1zm-.157-3.842a.82.82 0 0 1-.552.33l-.11.007H4.497a.5.5 0 0 1-.5-.5v-1a.5.5 0 0 1 .5-.5h11.031l-3.09-2.271a.5.5 0 0 1-.114-.69l.574-.82a.5.5 0 0 1 .704-.118l6.06 4.417a.82.82 0 0 1 .18 1.145z"/></g></svg>